<?xml version="1.0" encoding="UTF-8"?>
<svg xmlns="http://www.w3.org/2000/svg" width="198px" height="198px" viewBox="0 0 200 200" preserveAspectRatio="xMidYMid" class="uil-default">
   <rect x="0" y="0" width="100" height="100" fill="none" class="bk" />
   <rect x="97.5" y="90" width="5" height="20" rx="5" ry="5" fill="rgba(44,44,44,0.6)" transform="rotate(0 100 100) translate(0 -20)">
      <animate attributeName="opacity" from="1" to="0" dur="1s" begin="0s" repeatCount="indefinite" />
   </rect>
   <rect x="97.5" y="90" width="5" height="20" rx="5" ry="5" fill="rgba(44,44,44,0.6)" transform="rotate(36 100 100) translate(0 -20)">
      <animate attributeName="opacity" from="1" to="0" dur="1s" begin="0.1s" repeatCount="indefinite" />
   </rect>
   <rect x="97.5" y="90" width="5" height="20" rx="5" ry="5" fill="rgba(44,44,44,0.6)" transform="rotate(72 100 100) translate(0 -20)">
      <animate attributeName="opacity" from="1" to="0" dur="1s" begin="0.2s" repeatCount="indefinite" />
   </rect>
   <rect x="97.5" y="90" width="5" height="20" rx="5" ry="5" fill="rgba(44,44,44,0.6)" transform="rotate(108 100 100) translate(0 -20)">
      <animate attributeName="opacity" from="1" to="0" dur="1s" begin="0.3s" repeatCount="indefinite" />
   </rect>
   <rect x="97.5" y="90" width="5" height="20" rx="5" ry="5" fill="rgba(44,44,44,0.6)" transform="rotate(144 100 100) translate(0 -20)">
      <animate attributeName="opacity" from="1" to="0" dur="1s" begin="0.4s" repeatCount="indefinite" />
   </rect>
   <rect x="97.5" y="90" width="5" height="20" rx="5" ry="5" fill="rgba(44,44,44,0.6)" transform="rotate(180 100 100) translate(0 -20)">
      <animate attributeName="opacity" from="1" to="0" dur="1s" begin="0.5s" repeatCount="indefinite" />
   </rect>
   <rect x="97.5" y="90" width="5" height="20" rx="5" ry="5" fill="rgba(44,44,44,0.6)" transform="rotate(216 100 100) translate(0 -20)">
      <animate attributeName="opacity" from="1" to="0" dur="1s" begin="0.6s" repeatCount="indefinite" />
   </rect>
   <rect x="97.5" y="90" width="5" height="20" rx="5" ry="5" fill="rgba(44,44,44,0.6)" transform="rotate(252 100 100) translate(0 -20)">
      <animate attributeName="opacity" from="1" to="0" dur="1s" begin="0.7s" repeatCount="indefinite" />
   </rect>
   <rect x="97.5" y="90" width="5" height="20" rx="5" ry="5" fill="rgba(44,44,44,0.6)" transform="rotate(288 100 100) translate(0 -20)">
      <animate attributeName="opacity" from="1" to="0" dur="1s" begin="0.8s" repeatCount="indefinite" />
   </rect>
   <rect x="97.5" y="90" width="5" height="20" rx="5" ry="5" fill="rgba(44,44,44,0.6)" transform="rotate(324 100 100) translate(0 -20)">
      <animate attributeName="opacity" from="1" to="0" dur="1s" begin="0.9s" repeatCount="indefinite" />
   </rect>
</svg>
